<svg width="122px" height="88px" viewBox="0 0 122 88" version="1.1" xmlns="http://www.w3.org/2000/svg" xmlns:xlink="http://www.w3.org/1999/xlink">
  <g id="Symbols" stroke="none" stroke-width="1" fill="none" fill-rule="evenodd">
    <g id="logo-cnr">
      <path d="M111.23936,20.2518326 C106.09312,15.7413209 98.8164,12.8237163 91.77244,12.4454837 C87.62544,12.2249953 83.60076,12.8586233 79.83524,14.2822977 C75.70716,15.8429488 72.09344,18.5294605 69.14896,21.8279488 L23.22616,73.2631581 C23.02816,73.4858558 23.12892,73.849507 23.4136,73.9396465 C37.64144,78.4850651 47.66728,73.9661581 53.30588,67.7306233 C56.90948,63.643414 76.27432,41.6851581 81.41044,35.8119488 C89.3168,26.7701581 98.67076,34.5243674 98.76272,34.6061116 C103.86716,39.0799488 104.3956,46.8898326 99.94192,52.0149721 C97.75864,54.526507 94.73012,56.0279488 91.41868,56.2418093 C88.17632,56.4477163 85.06816,55.3859256 82.66048,53.243786 C81.59964,52.2986465 76.38432,47.3922279 75.8836,47.0219488 L52.19224,73.7240186 L52.22216,86.674507 C52.22216,87.4066698 52.81308,88.0000884 53.54216,88.0000884 L61.70812,88.0000884 L69.87452,88.0000884 C70.6036,88.0000884 71.19496,87.4066698 71.19496,86.674507 L71.19496,68.4490884 C77.24188,73.3484372 84.79272,75.7548093 92.63352,75.2550651 C101.03048,74.7146698 108.70232,70.9093674 114.23576,64.5417163 C125.5684,51.502414 124.22464,31.6341581 111.23936,20.2518326" id="Fill-1" fill="#005AC2"></path>
      <path d="M18.7539051,35.8999793 C19.8744418,26.8139959 27.3323683,19.5613495 36.4691201,18.6455581 C45.4826877,17.7411703 53.4302716,22.8762685 56.7641654,30.4661963 C56.8820703,30.7341793 57.2300658,30.7955829 57.4254009,30.5780386 L69.8960465,16.7122208 C70.0227503,16.5709925 70.0350687,16.3595885 69.9250828,16.2056408 C62.2326662,5.41921529 49.1056245,-1.25930714 34.554045,0.199029179 C16.3403736,2.0257873 1.77295609,16.7372209 0.155282913,34.9153282 C-1.25341698,50.7557115 7.05228112,64.8531087 19.7921723,71.9487372 C19.9580311,72.0412813 20.1687642,72.0057549 20.295468,71.8645265 L32.7771122,57.9859894 C32.9724472,57.7684451 32.87258,57.4298479 32.5923358,57.3421284 C23.7477066,54.5859825 17.5255821,45.8557015 18.7539051,35.8999793" id="Fill-4" fill="#59A0FC"></path>
    </g>
  </g>
</svg>
